<?xml version="1.0" standalone="no"?>
<!DOCTYPE svg PUBLIC "-//W3C//DTD SVG 20010904//EN"
 "http://www.w3.org/TR/2001/REC-SVG-20010904/DTD/svg10.dtd">
<svg version="1.0" xmlns="http://www.w3.org/2000/svg"
 width="932.000000pt" height="621.000000pt" viewBox="0 0 932.000000 621.000000"
 preserveAspectRatio="xMidYMid meet">
<metadata>
Created by potrace 1.16, written by Peter Selinger 2001-2019
</metadata>
<g transform="translate(0.000000,621.000000) scale(0.100000,-0.100000)"
fill="#000000" stroke="none">
<path d="M280 5428 c0 -82 33 -233 65 -305 46 -100 99 -207 124 -248 14 -22
29 -49 35 -60 47 -85 146 -215 246 -323 28 -29 50 -55 50 -57 0 -6 -117 32
-152 49 -18 10 -62 29 -98 43 -36 14 -69 32 -73 39 -4 8 -16 14 -26 14 -10 0
-37 14 -59 30 -23 17 -46 30 -51 30 -5 0 -15 7 -22 17 -15 18 -86 52 -108 53
-19 0 -8 -62 25 -136 48 -106 185 -328 221 -357 12 -9 31 -32 42 -51 12 -18
40 -46 63 -61 24 -15 65 -50 92 -76 26 -27 57 -51 67 -54 10 -4 19 -11 19 -16
0 -5 6 -9 13 -9 16 0 118 -65 129 -82 13 -21 9 -33 -4 -16 -9 11 -48 22 -115
32 -106 17 -244 54 -328 88 -84 34 -135 51 -141 45 -7 -7 33 -84 65 -125 14
-19 69 -79 121 -135 53 -56 113 -121 135 -144 21 -24 43 -43 48 -43 5 0 19
-10 31 -22 40 -43 91 -75 189 -120 l98 -45 -58 -16 c-145 -39 -256 -50 -360
-34 l-53 8 22 -37 c12 -20 37 -43 57 -52 20 -10 41 -20 46 -25 6 -4 35 -20 65
-35 30 -16 89 -47 130 -69 41 -22 125 -57 187 -78 l111 -38 -35 -24 c-19 -13
-74 -44 -122 -68 -96 -48 -113 -63 -113 -100 0 -32 19 -55 46 -55 12 0 61 -13
109 -29 47 -16 125 -34 173 -40 48 -6 89 -12 91 -15 16 -15 -215 -106 -271
-106 -74 0 27 -71 158 -111 24 -7 114 -12 225 -13 l186 -1 -125 -62 c-69 -33
-150 -71 -180 -83 -51 -21 -69 -35 -70 -52 0 -4 32 -17 71 -29 100 -30 275
-23 442 19 64 16 117 28 117 27 0 -2 -56 -40 -125 -86 -69 -46 -125 -89 -125
-95 0 -26 115 -45 205 -34 39 5 113 11 165 14 64 4 98 10 105 19 16 22 54 39
74 32 25 -8 48 3 54 26 3 10 20 27 37 36 18 10 52 32 75 49 l42 32 -5 -44 c-4
-34 -1 -44 10 -44 24 0 44 30 68 102 19 61 24 68 48 68 15 0 38 3 52 6 21 5
22 4 8 -6 -10 -6 -18 -20 -18 -30 0 -23 4 -24 32 -9 25 13 53 -6 29 -20 -7 -5
-10 -14 -7 -20 11 -17 26 -13 26 7 0 17 59 97 66 90 2 -2 -3 -25 -11 -51 -12
-41 -12 -47 0 -47 19 0 19 -4 1 -39 -15 -29 -128 -133 -181 -167 l-30 -19 30
40 c17 22 33 42 37 43 12 5 10 52 -2 52 -5 0 -16 -12 -24 -27 -8 -16 -27 -40
-43 -54 -40 -37 -164 -121 -170 -116 -6 7 59 130 75 140 6 4 12 17 12 28 0 29
-29 10 -78 -51 -40 -50 -40 -50 -55 -27 -14 20 -17 21 -31 6 -14 -12 -14 -21
-5 -47 6 -18 8 -39 5 -48 -6 -15 -9 -15 -32 1 -26 16 -26 16 -18 -7 4 -12 10
-39 14 -58 l6 -35 74 3 c69 3 77 5 98 32 14 18 39 34 65 41 56 14 106 49 199
138 84 81 98 107 123 227 21 102 44 182 55 189 12 7 24 148 15 175 -10 30 -77
102 -134 144 -42 30 -54 34 -141 39 -113 7 -250 35 -250 52 0 6 -22 19 -49 29
-28 10 -62 28 -76 42 -14 13 -30 24 -34 24 -17 0 -75 70 -92 111 -35 87 -15
189 54 269 39 46 139 129 154 130 20 0 83 33 83 43 0 5 51 60 113 121 137 135
174 181 183 223 16 80 -20 121 -166 191 -150 71 -181 81 -295 92 -117 12 -415
78 -415 92 0 4 -4 8 -10 8 -5 0 -31 13 -57 28 -38 22 -57 27 -90 24 -33 -3
-44 0 -49 12 -3 9 -29 23 -58 31 -28 9 -82 35 -121 60 -38 24 -97 58 -130 76
-33 17 -64 38 -68 45 -4 8 -13 14 -19 14 -26 0 -182 117 -239 178 -33 37 -69
69 -78 72 -22 6 -220 234 -291 336 -81 116 -160 243 -183 297 -21 49 -37 33
-37 -35z m625 -774 c137 -113 278 -207 418 -277 197 -99 382 -177 417 -177 31
0 367 -57 458 -77 44 -10 124 -42 195 -77 113 -56 122 -63 125 -91 7 -71 -162
-268 -303 -355 -38 -24 -72 -46 -75 -49 -3 -3 -27 -23 -53 -45 -175 -140 -211
-357 -85 -503 58 -67 184 -150 273 -179 39 -13 38 -13 -29 -7 -51 4 -67 3 -62
-5 4 -7 13 -12 21 -12 7 0 15 -4 17 -9 2 -5 27 -12 57 -16 52 -7 54 -6 48 14
-6 24 5 26 48 6 l30 -13 -27 -1 c-28 -1 -42 -31 -15 -31 29 0 57 13 57 26 0
16 6 16 35 4 17 -7 17 -9 3 -9 -10 -1 -18 -8 -18 -16 0 -20 -92 -20 -172 -1
-68 17 -197 65 -218 82 -8 6 -38 23 -67 38 -28 14 -73 48 -100 75 -61 62 -83
125 -83 238 0 89 9 112 74 206 78 109 85 118 118 141 158 107 190 130 201 145
6 10 34 37 61 61 28 23 71 73 98 111 48 68 48 68 28 87 -50 47 -173 88 -342
113 -72 12 -98 29 -42 29 15 0 24 6 24 15 0 11 -11 15 -40 15 -83 0 -486 71
-525 92 -33 19 -86 44 -148 72 -32 14 -60 33 -63 41 -4 8 -15 15 -27 15 -11 0
-28 7 -38 16 -10 9 -23 13 -28 9 -18 -10 -13 -20 17 -33 110 -51 167 -89 170
-113 2 -16 15 -32 35 -44 54 -32 13 -27 -83 9 -111 44 -191 90 -290 172 -81
67 -258 246 -306 310 -16 21 -31 41 -34 44 -5 5 -48 63 -114 153 -54 74 -7 35
63 -53 40 -49 113 -127 164 -174 121 -111 277 -236 294 -236 7 0 13 -4 13 -10
0 -5 7 -10 15 -10 37 0 -7 45 -110 113 -67 44 -249 221 -310 301 -101 133
-175 239 -175 251 0 5 78 -67 173 -161 94 -93 199 -192 232 -220z m-291 -213
c60 -28 116 -51 125 -51 9 0 56 -12 105 -26 84 -25 162 -70 231 -132 64 -58
242 -143 343 -163 34 -7 62 -18 62 -25 0 -9 -10 -10 -37 -3 -21 5 -53 9 -70 9
-18 0 -33 5 -33 10 0 13 -27 13 -35 0 -4 -6 -2 -17 5 -25 7 -9 8 -15 0 -20
-11 -7 -14 -55 -2 -55 4 0 13 4 21 9 10 6 18 5 25 -4 6 -8 25 -21 41 -30 l30
-15 -27 0 c-15 0 -34 -7 -42 -16 -15 -14 -16 -13 -16 14 0 25 -5 30 -42 39
-72 18 -242 83 -253 96 -5 6 -46 30 -90 52 -44 22 -98 51 -120 65 -22 14 -48
30 -57 35 -104 62 -399 303 -406 330 -4 15 75 -16 242 -94z m-147 -62 c49 -45
99 -88 113 -97 14 -8 48 -30 75 -47 128 -82 244 -152 290 -174 l50 -24 -42
-10 c-24 -5 -43 -15 -43 -21 0 -23 60 -94 87 -104 16 -5 50 -18 78 -28 77 -27
37 -28 -48 0 -79 26 -183 76 -230 110 -116 86 -300 273 -372 380 -56 82 -64
96 -50 96 3 0 44 -36 92 -81z m1337 -380 c111 -10 289 -48 304 -65 4 -4 -4 -4
-17 -1 -39 10 -81 -3 -81 -24 0 -10 7 -22 16 -27 12 -6 -3 -11 -49 -16 -111
-11 -246 39 -340 127 l-28 25 38 -4 c21 -2 91 -9 157 -15z m-1149 -157 c42
-11 154 -27 265 -37 134 -13 480 -102 405 -104 -16 -1 -41 -4 -53 -8 -22 -5
-23 -9 -17 -52 4 -25 8 -47 9 -48 1 -2 21 5 44 13 38 16 43 16 67 0 14 -9 25
-23 25 -31 0 -8 5 -15 11 -15 6 0 3 -8 -7 -17 -15 -15 -18 -15 -28 -1 -17 23
-48 30 -160 33 -89 3 -117 8 -217 43 -173 60 -212 76 -231 92 -9 8 -34 24 -55
35 -72 36 -201 115 -213 130 -9 11 1 10 52 -4 34 -10 81 -23 103 -29z m1453
-21 l24 -6 -21 -19 c-31 -28 -27 -55 10 -68 50 -17 19 -26 -61 -17 -86 9 -210
51 -235 79 -19 21 -15 25 35 33 41 7 223 6 248 -2z m-1378 -137 c109 -56 217
-101 255 -107 17 -3 -7 -3 -52 0 -69 4 -83 3 -83 -10 0 -20 23 -37 94 -69 61
-27 92 -57 45 -43 -49 14 -147 63 -204 103 -70 47 -265 218 -265 232 0 5 28
-7 63 -27 34 -19 100 -55 147 -79z m1174 16 c63 -30 101 -60 77 -60 -7 0 -11
-7 -9 -15 2 -8 -15 -37 -37 -65 -29 -37 -46 -50 -65 -50 -28 0 -158 44 -172
58 -5 5 28 14 74 21 106 15 118 19 118 37 0 11 -17 14 -77 14 -89 0 -213 24
-224 42 -6 10 15 16 87 25 53 6 103 14 112 16 36 10 54 6 116 -23z m-480 -350
c14 -5 29 -18 35 -28 10 -18 7 -20 -41 -18 -57 1 -78 -19 -32 -30 l28 -7 -39
-14 c-21 -7 -42 -18 -46 -24 -10 -17 -79 -29 -176 -29 -70 -1 -92 -4 -97 -15
-4 -11 2 -15 19 -15 13 0 27 -4 30 -10 3 -5 -3 -10 -14 -10 -12 0 -21 -4 -21
-9 0 -10 91 -51 114 -51 9 0 16 -5 16 -11 0 -8 -15 -9 -45 -5 -51 8 -247 76
-303 106 l-37 19 70 0 c39 0 87 -3 108 -8 28 -7 37 -6 37 4 0 8 -17 15 -42 18
-24 3 -81 16 -127 29 l-85 25 100 26 c54 15 122 32 149 37 28 5 64 14 80 19
40 12 287 14 319 1z m-54 -355 c11 -13 8 -15 -19 -15 -35 0 -38 -9 -17 -68
l14 -40 -86 -6 c-214 -15 -287 -18 -282 -13 3 2 57 32 120 65 63 33 129 67
145 76 38 20 108 21 125 1z m-70 -175 c0 -5 -9 -10 -20 -10 -11 0 -20 -7 -20
-16 0 -9 7 -14 18 -13 21 3 72 -21 72 -34 0 -5 -15 -7 -32 -4 -18 3 -85 9
-148 13 -123 7 -202 28 -165 45 11 5 81 13 155 17 74 5 136 10 138 11 1 0 2
-3 2 -9z m304 -105 c-4 -8 -10 -15 -15 -15 -17 0 -10 -59 8 -69 14 -8 11 -12
-22 -26 -22 -9 -69 -21 -105 -26 -80 -10 -240 -12 -240 -1 0 4 26 21 58 37 31
17 75 41 97 54 22 14 76 32 120 42 103 22 105 22 99 4z m770 -40 c57 -5 86
-18 86 -36 0 -5 -18 -9 -41 -9 -39 0 -40 -1 -35 -27 5 -22 0 -36 -25 -65 -32
-40 -53 -50 -42 -22 5 14 2 16 -20 10 l-27 -6 0 69 c0 38 -3 76 -6 85 -5 13 0
15 22 11 16 -2 56 -7 88 -10z m316 -37 c0 -24 -9 -39 -40 -65 -22 -19 -40 -40
-40 -46 0 -7 -9 -18 -20 -25 -19 -11 -20 -10 -20 29 0 34 -6 47 -35 73 -19 18
-35 37 -35 44 0 12 36 18 128 20 l62 2 0 -32z m-797 -113 c8 -21 -44 -61 -138
-106 -90 -43 -251 -102 -265 -97 -20 7 224 158 320 198 55 23 76 24 83 5z
m258 -150 c35 -8 40 -39 8 -56 -13 -6 -19 -18 -16 -28 3 -14 -1 -16 -24 -13
-17 3 -29 0 -29 -7 0 -6 11 -11 25 -11 14 0 25 -5 25 -11 0 -11 25 -9 65 6 28
10 -91 -71 -145 -99 -50 -26 -188 -47 -176 -27 4 6 13 11 19 11 7 0 23 9 37
20 23 17 23 19 7 26 -12 4 -51 -5 -101 -25 -46 -17 -86 -31 -90 -31 -4 0 13
16 38 35 26 19 50 35 55 35 4 0 16 9 27 21 10 12 31 27 46 35 16 8 28 22 28
31 0 17 55 68 124 115 l41 27 3 -24 c2 -17 11 -25 33 -30z"/>
<path d="M7112 4567 c-45 -6 -65 -14 -73 -28 -5 -11 -51 -39 -102 -64 -70 -33
-109 -60 -162 -112 -38 -38 -76 -76 -83 -85 -14 -17 -68 -204 -78 -270 -4 -24
-13 -50 -20 -58 -17 -20 -34 -94 -33 -150 0 -40 5 -51 47 -96 26 -28 68 -67
93 -87 46 -37 47 -37 139 -37 74 0 109 -5 174 -27 44 -15 83 -30 86 -33 3 -3
32 -19 64 -35 138 -69 198 -147 199 -260 1 -54 -4 -68 -38 -124 -44 -70 -142
-160 -208 -189 -46 -21 -272 -243 -332 -328 -81 -113 -32 -170 250 -293 56
-24 90 -31 169 -36 55 -4 141 -17 190 -30 50 -12 119 -29 154 -36 35 -6 70
-18 77 -26 8 -7 18 -13 22 -13 5 0 30 -13 55 -29 37 -24 54 -28 85 -24 28 4
44 1 55 -11 9 -9 22 -16 28 -16 13 0 158 -76 180 -95 8 -7 47 -29 85 -51 39
-21 72 -41 75 -44 3 -4 28 -20 55 -35 74 -43 153 -105 218 -174 32 -34 63 -61
70 -62 14 0 162 -172 257 -298 88 -116 145 -203 187 -289 46 -92 63 -94 63 -8
0 72 -19 173 -49 256 -19 56 -88 204 -115 250 -8 14 -32 54 -53 90 -34 58 -75
119 -151 223 -13 18 -52 63 -88 101 -35 38 -62 71 -60 73 7 8 265 -97 316
-128 8 -5 38 -21 65 -35 28 -15 65 -38 83 -52 18 -14 55 -35 82 -48 l48 -22
-5 41 c-3 23 -18 71 -35 107 -37 83 -165 300 -190 322 -10 9 -36 40 -57 68
-22 29 -53 60 -70 71 -16 10 -53 40 -80 66 -71 66 -104 91 -148 109 -40 17
-103 71 -103 88 0 6 5 3 11 -6 6 -11 22 -18 42 -18 57 0 289 -60 407 -106 112
-43 140 -51 140 -38 0 12 -58 109 -78 129 -10 11 -23 28 -28 37 -14 25 -264
278 -275 278 -5 0 -9 5 -9 10 0 6 -6 10 -13 10 -8 0 -19 10 -24 23 -10 20 -59
48 -212 121 -31 15 -48 28 -40 30 8 3 64 15 124 26 119 23 216 27 283 12 49
-11 52 -4 23 45 -12 18 -35 37 -55 44 -20 7 -36 17 -36 21 0 4 -6 8 -14 8 -8
0 -43 17 -78 37 -127 73 -224 117 -333 148 -33 10 -64 20 -68 22 -11 6 34 34
147 92 150 77 165 132 45 165 -35 9 -100 28 -144 41 -44 13 -109 27 -144 31
l-64 6 51 29 c47 28 83 40 205 72 26 6 47 15 47 18 0 16 -75 61 -132 79 -84
27 -307 50 -378 40 -97 -15 -97 -11 0 36 52 25 122 58 155 74 33 16 71 32 85
36 14 3 31 11 38 16 27 22 10 36 -70 58 -67 18 -100 21 -173 17 -95 -5 -252
-31 -322 -53 -24 -7 -43 -11 -43 -10 0 5 100 76 178 127 34 23 62 48 62 55 0
30 -73 37 -266 28 -156 -8 -188 -12 -198 -26 -15 -20 -64 -41 -77 -32 -6 3
-21 3 -35 0 -19 -5 -24 -11 -19 -26 4 -12 0 -20 -12 -24 -10 -3 -47 -26 -83
-50 -64 -44 -85 -51 -60 -21 7 8 10 25 7 37 -6 22 4 38 69 110 36 40 41 41 58
3 3 -5 12 -1 20 9 11 13 14 31 9 62 -6 47 -3 50 28 34 14 -8 19 -7 19 3 0 19
-30 106 -38 110 -4 2 -35 -1 -70 -6z m-26 -126 c-8 -9 -24 -37 -36 -63 -11
-25 -27 -48 -35 -52 -8 -3 -15 -15 -15 -27 0 -12 -13 -36 -29 -55 -19 -21 -34
-53 -41 -88 -6 -31 -17 -56 -23 -56 -7 -1 -31 -5 -54 -9 -24 -5 -40 -4 -37 0
3 5 12 9 20 9 8 0 14 9 14 21 0 18 -5 21 -30 17 -17 -3 -33 -1 -36 4 -3 4 0 8
6 8 7 0 9 7 6 17 -4 9 -1 20 6 24 7 4 9 11 6 15 -8 8 -38 -20 -38 -35 0 -11
-6 -20 -50 -71 l-22 -25 6 25 c4 14 9 35 12 48 5 16 2 22 -10 22 -35 0 -12 37
79 125 100 98 165 139 100 62 -33 -38 -47 -87 -25 -87 6 0 10 6 10 13 0 19 75
89 149 141 62 43 99 52 67 17z m344 -148 c-25 -15 -46 -30 -48 -35 -2 -4 -12
-8 -23 -8 -10 0 -19 -7 -19 -15 0 -20 49 -20 64 0 9 11 186 79 186 70 0 -1
-45 -34 -100 -75 -55 -40 -100 -77 -100 -82 0 -5 -8 -17 -17 -27 -29 -29 -133
-111 -142 -111 -5 0 -6 11 -4 24 4 20 0 25 -26 31 -43 9 -47 22 -16 55 15 15
22 30 17 34 -6 3 -8 15 -5 26 7 25 -15 27 -57 5 -17 -9 -30 -13 -30 -11 0 3
15 13 33 22 17 9 48 28 67 43 54 41 158 80 215 80 l50 1 -45 -27z m430 -177
c0 -5 -148 -106 -155 -106 -4 0 -25 -13 -48 -28 -44 -29 -176 -92 -194 -92
-24 0 -21 31 6 58 35 35 198 115 273 135 30 8 64 19 74 25 18 11 44 16 44 8z
m-1070 -260 c7 -13 23 -29 35 -34 17 -8 22 -17 18 -31 -5 -18 -13 -21 -63 -21
-32 0 -72 -3 -89 -6 -31 -6 -31 -6 -31 35 0 34 4 43 23 52 13 6 36 31 52 57
l29 47 6 -38 c4 -21 13 -48 20 -61z m240 64 c0 -23 10 -26 28 -8 9 9 12 2 12
-32 0 -25 3 -62 7 -84 l6 -38 -85 3 c-61 3 -89 8 -101 20 -15 16 -13 18 28 28
44 11 56 23 35 36 -11 7 45 95 60 95 6 0 10 -9 10 -20z m1084 -59 c3 -5 -16
-18 -42 -30 -26 -12 -75 -37 -110 -56 -59 -33 -205 -75 -218 -62 -3 3 -1 14 5
25 16 29 14 57 -5 73 -13 11 -9 14 33 26 91 26 326 42 337 24z m-992 -191 c45
-16 89 -30 98 -30 10 0 36 -13 58 -30 23 -16 48 -30 55 -30 8 0 43 -21 78 -47
87 -65 130 -148 137 -263 5 -81 3 -86 -47 -175 -72 -126 -135 -189 -274 -272
-38 -22 -187 -167 -214 -207 -15 -23 -38 -53 -51 -68 l-24 -26 42 -31 c55 -40
203 -87 321 -103 87 -11 90 -13 58 -23 -61 -21 -44 -32 58 -39 54 -4 163 -20
243 -36 80 -16 162 -32 183 -35 20 -3 37 -10 37 -15 0 -6 7 -10 16 -10 8 0 22
-7 31 -15 8 -9 28 -19 44 -22 16 -3 29 -9 29 -13 0 -4 17 -12 39 -18 21 -7 44
-19 51 -27 7 -8 17 -15 22 -15 5 0 22 -10 38 -22 25 -18 32 -20 43 -9 9 10 9
15 1 18 -7 2 -41 21 -76 43 -36 21 -77 42 -92 46 -21 5 -26 12 -26 35 0 16 -3
29 -7 29 -5 0 -19 9 -33 20 l-25 19 35 -8 c91 -21 219 -80 293 -135 124 -93
226 -191 341 -326 74 -86 98 -117 191 -244 42 -58 4 -30 -46 34 -104 132 -435
430 -478 430 -6 0 -11 5 -11 10 0 6 -7 10 -15 10 -22 0 -19 -10 14 -39 44 -39
52 -45 102 -74 41 -24 230 -204 237 -227 2 -6 9 -10 15 -11 7 0 29 -26 50 -57
21 -31 62 -87 90 -125 29 -37 65 -91 81 -119 l28 -52 -53 59 c-113 125 -341
343 -416 397 -18 13 -78 56 -135 97 -98 71 -266 163 -413 229 -164 73 -230 94
-345 108 -63 8 -169 26 -235 40 -66 13 -128 24 -139 24 -49 0 -306 137 -306
163 0 6 14 39 30 73 40 80 166 215 244 261 33 19 74 46 91 60 16 13 45 36 63
51 68 55 104 99 135 162 42 87 45 188 7 265 -47 97 -141 179 -275 240 l-80 36
63 -6 c40 -4 62 -2 62 5 0 5 -9 10 -19 10 -11 0 -21 4 -23 8 -4 11 -108 24
-108 14 0 -5 6 -14 13 -21 10 -11 8 -12 -8 -8 -11 3 -51 9 -90 13 -62 6 -67 8
-42 17 18 6 26 14 23 23 -4 11 9 14 64 14 52 0 90 -7 152 -30z m1018 19 c125
-11 176 -22 203 -41 15 -12 14 -13 -15 -13 -18 -1 -91 -4 -163 -8 -87 -5 -123
-4 -107 3 25 11 30 30 6 30 -8 0 -12 -5 -9 -10 3 -6 -10 -1 -29 11 -20 12 -36
25 -36 30 0 11 10 11 150 -2z m160 -135 c-36 -19 -83 -44 -105 -55 -22 -11
-58 -30 -80 -42 -25 -13 -58 -21 -87 -21 -53 0 -86 18 -41 22 14 1 28 4 30 6
3 2 -2 27 -11 55 -11 38 -12 51 -3 52 7 1 84 5 172 9 88 3 167 7 175 8 8 1
-14 -14 -50 -34z m-20 -216 c65 -18 139 -46 230 -87 20 -9 8 -10 -65 -7 -49 3
-100 8 -112 12 -17 4 -23 2 -23 -9 0 -10 13 -17 38 -20 20 -3 57 -11 82 -17
25 -7 62 -16 83 -21 21 -6 35 -14 32 -19 -3 -5 -40 -16 -83 -25 -42 -9 -120
-29 -172 -43 -81 -22 -114 -26 -225 -26 -138 1 -179 10 -188 43 -4 18 -1 20
45 18 55 -2 77 16 33 27 -33 8 -24 23 20 32 19 3 35 10 35 14 0 11 171 40 202
33 15 -3 40 -2 55 2 l28 7 -28 10 c-25 9 -26 11 -11 22 25 19 11 31 -56 50
-33 10 -58 21 -55 27 7 10 22 7 135 -23z m205 -411 c80 -47 150 -100 253 -193
80 -74 109 -114 55 -78 -83 55 -282 151 -393 190 -104 37 -103 39 13 20 76
-12 77 -12 77 9 0 15 -14 28 -52 47 -29 15 -65 30 -80 33 -16 4 -28 13 -28 20
0 11 15 8 63 -9 34 -12 76 -30 92 -39z m-925 -22 c46 -14 88 -29 93 -34 4 -4
-38 -15 -95 -25 -57 -9 -107 -21 -112 -26 -4 -4 22 -11 60 -14 114 -11 245
-38 241 -50 -2 -6 -57 -19 -122 -30 l-118 -19 -73 36 c-62 31 -72 40 -70 59 3
31 76 128 96 128 9 0 54 -11 100 -25z m410 -5 c0 -19 49 -30 148 -34 104 -5
223 -34 325 -80 32 -14 66 -26 77 -26 11 0 27 -8 37 -18 16 -16 67 -47 166
-99 15 -8 51 -31 80 -50 l52 -35 -40 7 c-22 4 -65 14 -95 22 -108 31 -126 34
-250 43 -117 8 -322 53 -480 104 l-45 14 62 0 c73 0 83 5 83 40 0 47 -12 56
-54 42 -46 -15 -96 2 -96 31 0 11 -5 19 -11 19 -8 0 -8 5 1 15 14 17 40 20 40
5z m-612 -186 c77 -16 119 -33 159 -64 22 -17 21 -18 -58 -30 -74 -12 -208 -8
-230 6 -5 3 -2 12 6 20 32 33 13 64 -38 64 -18 0 -19 2 -7 10 22 14 81 12 168
-6z m929 -140 c46 -8 173 -65 228 -102 76 -51 170 -130 226 -188 98 -105 237
-289 226 -300 -2 -2 -37 26 -78 62 -123 111 -149 130 -282 206 -16 9 -36 23
-45 31 -27 22 -129 78 -227 124 -84 40 -88 43 -52 43 25 0 37 -4 37 -14 0 -20
34 -29 76 -21 38 7 40 14 20 53 -19 37 -60 65 -134 92 -34 12 -62 25 -62 27 0
3 6 3 14 0 8 -3 32 -9 53 -13z m-712 -43 c90 -43 179 -112 135 -105 -14 2 -95
11 -180 18 -105 10 -177 22 -225 38 l-70 23 53 3 c43 3 53 6 48 18 -3 9 -6 20
-6 25 0 5 -8 10 -17 11 -10 0 5 4 32 8 83 13 144 2 230 -39z m495 -57 c36 -13
73 -24 82 -24 16 0 84 -34 263 -130 28 -15 79 -44 114 -66 35 -21 71 -43 80
-49 86 -51 361 -285 361 -306 0 -5 -24 2 -52 15 -29 13 -91 40 -138 61 -47 21
-109 48 -137 61 -29 13 -72 26 -95 30 -84 12 -144 38 -220 96 -42 32 -79 62
-83 67 -18 30 -301 151 -352 151 -18 0 -33 5 -33 11 0 10 32 9 143 -7 36 -6
50 7 26 22 -8 4 -8 9 0 17 13 13 15 57 3 57 -4 0 -13 -5 -20 -12 -10 -10 -16
-7 -28 11 -9 12 -26 26 -38 31 -18 8 -17 9 12 9 23 1 32 6 33 19 1 9 4 4 8
-12 5 -24 16 -32 71 -52z"/>
<path d="M3107 4106 c-22 -24 -23 -24 -46 -5 -13 10 -29 19 -37 19 -24 0 -64
-23 -64 -37 0 -7 -4 -13 -9 -13 -15 0 -47 -62 -54 -103 -7 -43 -4 -44 25 -17
12 10 25 17 29 14 4 -2 13 -30 19 -60 14 -67 20 -525 7 -569 -38 -137 -38
-130 -17 -189 17 -51 19 -89 20 -384 1 -180 -3 -340 -8 -357 -8 -27 -12 -30
-45 -27 -40 3 -42 1 -26 -30 36 -67 98 -107 164 -106 16 0 31 -5 33 -11 6 -18
78 -51 112 -51 40 0 117 35 133 60 6 11 17 20 22 20 13 0 60 127 80 213 9 39
14 127 14 257 l0 198 -62 -1 c-34 -1 -65 -6 -69 -12 -4 -5 -5 -81 -2 -167 5
-150 4 -161 -21 -245 -29 -96 -48 -125 -78 -121 -38 6 -46 72 -50 383 -3 263
-2 296 16 350 10 33 23 69 29 81 7 16 5 32 -11 65 -34 74 -39 124 -35 384 4
294 6 315 37 315 13 0 28 -5 35 -12 24 -24 24 3 1 63 -24 61 -75 119 -105 119
-8 0 -25 -11 -37 -24z"/>
<path d="M4718 4089 c-37 -39 -68 -100 -68 -136 0 -5 13 -8 29 -5 25 3 30 0
35 -25 4 -16 7 -155 8 -308 l1 -280 -26 -52 -27 -51 25 -57 c25 -54 25 -63 27
-303 1 -316 16 -455 57 -545 12 -25 21 -48 21 -52 0 -3 12 -18 28 -34 36 -38
93 -61 152 -61 102 0 152 48 198 190 42 133 45 160 46 475 1 269 2 282 24 326
28 57 28 74 0 124 -21 39 -22 50 -22 342 -1 166 3 305 7 309 4 5 17 2 28 -5
27 -16 30 -12 22 32 -6 42 -66 117 -92 117 -9 0 -22 -5 -29 -12 -9 -9 -16 -7
-32 10 -20 21 -22 21 -46 6 -28 -19 -35 -30 -63 -102 l-20 -51 28 5 c24 5 30
2 37 -17 4 -13 7 -148 6 -299 -1 -266 -2 -277 -26 -337 -21 -54 -23 -67 -13
-95 7 -18 14 -35 17 -38 20 -20 27 -114 24 -362 -3 -225 -7 -281 -20 -318 -20
-52 -28 -60 -66 -60 -20 0 -31 8 -42 28 -32 62 -38 134 -34 408 2 227 6 275
18 290 44 53 45 69 10 140 l-32 66 4 281 c3 155 8 290 13 300 6 13 14 17 32
12 21 -5 23 -3 17 22 -10 44 -67 134 -91 146 -19 8 -26 6 -44 -17 l-21 -27
-28 33 -28 33 -44 -46z"/>
<path d="M3751 4110 c-46 -5 -58 -11 -86 -43 l-32 -37 -13 25 c-10 19 -21 25
-48 25 -55 0 -122 -88 -122 -162 0 -24 8 -23 30 5 18 21 19 21 37 4 17 -16 18
-42 18 -331 0 -213 -4 -317 -11 -327 -17 -22 -35 -82 -26 -88 4 -3 14 -28 23
-56 21 -68 22 -766 1 -787 -11 -11 -16 -9 -32 12 -10 14 -22 22 -26 18 -14
-15 9 -61 54 -108 50 -51 80 -62 102 -35 17 20 27 19 34 -3 8 -25 83 -61 126
-60 41 1 100 45 132 98 12 19 25 37 28 40 18 15 67 148 70 190 1 14 2 94 1
177 l-1 153 -55 -1 c-33 -1 -55 -6 -56 -13 0 -6 0 -76 0 -155 0 -155 -2 -163
-63 -228 -30 -33 -58 -41 -85 -24 -19 12 -30 194 -27 456 l2 219 43 3 c52 3
59 -10 36 -72 -20 -51 -19 -57 13 -48 38 10 66 77 64 153 -3 89 -3 127 0 218
1 56 -2 85 -15 109 -19 35 -44 63 -58 63 -13 0 -11 -34 3 -48 17 -17 12 -112
-6 -131 -10 -10 -16 -11 -16 -3 0 8 -7 9 -26 1 -15 -5 -29 -7 -32 -5 -7 8 -9
359 -3 454 5 72 9 86 30 103 29 24 69 25 78 2 4 -10 18 -28 32 -40 25 -22 26
-26 28 -160 1 -76 2 -150 2 -164 1 -24 5 -26 50 -28 31 -1 53 3 58 11 4 7 6
101 5 208 -2 195 -2 195 23 224 21 24 27 27 40 16 13 -11 15 -57 15 -320 l0
-308 -30 -67 -30 -66 30 -53 30 -53 -2 -353 c-3 -323 -4 -354 -20 -364 -13 -8
-23 -8 -38 2 -24 15 -30 15 -30 2 0 -17 60 -139 76 -155 23 -22 70 -19 88 7
l15 21 32 -31 c18 -18 41 -32 51 -32 22 0 54 35 63 68 4 15 10 29 15 32 4 3
11 28 15 55 l6 50 -20 -25 c-11 -14 -21 -23 -24 -20 -37 46 -37 45 -37 397 l0
343 35 0 c24 0 44 -8 59 -23 26 -26 25 -6 29 -448 2 -259 4 -299 18 -315 9
-11 26 -40 38 -66 29 -65 54 -64 120 3 36 37 55 67 66 102 17 59 19 87 5 87
-5 0 -10 -4 -10 -10 0 -12 -27 -14 -34 -2 -12 20 -18 149 -17 372 2 310 -12
376 -88 444 -21 19 -21 20 -3 50 118 202 111 607 -13 777 -51 68 -77 80 -159
72 -63 -6 -69 -9 -102 -47 l-35 -41 -21 28 c-11 15 -29 27 -41 27 -26 0 -84
-60 -101 -104 -10 -28 -11 -24 -16 53 -3 55 -9 86 -17 89 -7 2 -16 -5 -19 -15
-3 -10 -13 -33 -21 -51 l-16 -32 -26 24 c-14 13 -44 34 -66 48 -34 20 -49 23
-94 18z m622 -267 c20 -44 21 -64 21 -238 0 -197 -8 -248 -43 -279 -13 -12
-27 -15 -44 -10 -25 6 -26 9 -29 92 -2 48 -2 176 0 285 l3 197 35 0 c32 0 37
-4 57 -47z"/>
<path d="M5463 3730 l-30 -30 -13 25 c-24 45 -67 28 -112 -45 -17 -29 -30
-110 -17 -110 5 0 9 6 9 13 0 16 37 39 45 27 3 -5 6 -118 6 -251 0 -205 -3
-250 -18 -291 -16 -46 -16 -50 0 -78 16 -26 18 -63 19 -328 1 -164 -2 -304 -6
-311 -6 -9 -13 -8 -27 5 -26 23 -33 12 -20 -28 14 -39 29 -59 59 -76 29 -16
47 -15 62 3 11 13 15 13 33 0 28 -19 64 -10 104 28 34 32 58 83 43 92 -5 3
-19 -4 -30 -15 -23 -23 -37 -19 -50 16 -9 22 -16 542 -8 550 9 9 59 11 64 3 3
-6 0 -24 -6 -40 -22 -53 10 -50 47 4 20 29 22 42 19 148 -2 100 -6 121 -27
159 -13 24 -30 45 -36 48 -15 4 -18 -29 -4 -44 5 -5 11 -22 13 -39 3 -28 1
-30 -34 -33 l-38 -3 -1 83 c-3 342 3 374 67 366 22 -2 33 -14 53 -53 22 -43
27 -67 31 -170 l5 -120 38 -3 c32 -3 38 0 37 15 -1 10 -2 100 -1 199 1 158 3
183 17 188 24 9 45 -13 44 -48 -1 -17 -1 -116 -1 -221 0 -211 -3 -255 -23
-293 -11 -22 -11 -33 5 -78 17 -47 19 -86 19 -324 0 -174 -4 -279 -11 -291
-10 -19 -12 -19 -35 -4 -23 15 -24 14 -24 -4 0 -11 17 -40 38 -65 34 -42 41
-45 79 -44 23 1 48 -4 56 -11 13 -10 21 -10 39 0 36 19 88 82 88 107 0 23 -14
30 -25 12 -10 -17 -21 -11 -33 15 -8 18 -12 106 -12 271 0 231 8 323 31 349
14 14 10 45 -11 105 -17 48 -19 84 -20 288 0 249 0 247 53 227 30 -12 21 39
-16 87 -35 46 -75 60 -103 37 -11 -9 -18 -9 -26 -1 -22 22 -57 13 -88 -20 -16
-18 -30 -40 -31 -48 -1 -8 -5 8 -8 35 l-7 50 -14 -30 c-24 -49 -37 -59 -49
-36 -18 33 -78 61 -130 61 -41 0 -53 -5 -78 -30z"/>
<path d="M6190 3713 c-20 -26 -43 -68 -53 -93 -24 -65 -64 -280 -71 -385 -14
-190 -17 -219 -31 -252 -13 -30 -13 -38 0 -63 19 -37 32 -104 40 -203 3 -43
12 -103 20 -135 8 -31 16 -75 18 -97 2 -22 19 -75 37 -118 33 -81 76 -127 118
-127 30 0 81 32 88 55 4 11 17 34 30 51 34 46 43 101 44 250 0 145 0 144 -63
136 l-38 -4 2 -97 c1 -108 -13 -170 -47 -202 l-22 -21 -19 28 c-16 25 -18 51
-18 234 0 177 2 209 18 237 17 31 17 35 -1 86 -15 45 -17 86 -16 282 1 266 5
295 40 295 44 0 58 -54 59 -220 l0 -145 55 0 54 0 -2 225 c-2 330 -2 328 -12
305 -4 -12 -15 -26 -23 -33 -13 -11 -20 -8 -45 19 -23 25 -40 33 -78 36 -49 5
-49 5 -84 -44z"/>
</g>
</svg>
